<?xml version="1.0" standalone="no"?> <!DOCTYPE svg PUBLIC "-//W3C//DTD SVG 1.0//EN" "http://www.w3.org/TR/2001/REC-SVG-20010904/DTD/svg10.dtd" > <svg xmlns="http://www.w3.org/2000/svg" width="100%" height="100%">
<defs >
<font id="vectoraltstd-light" horiz-adv-x="1021" ><font-face
    font-family="Vectora LT Std Light"
    units-per-em="2048"
    panose-1="2 11 4 6 3 5 3 2 2 4"
    ascent="1592"
    descent="-457"
    alphabetic="0" />
<missing-glyph horiz-adv-x="1024" d="M0 0V1434H1024V0H0ZM512 809L860 1331H164L512 809ZM573 717L922 195V1239L573 717ZM164 102H860L512 625L164 102ZM102 1239V195L451 717L102 1239Z" />
<glyph unicode=" " glyph-name="space" horiz-adv-x="532" />
<glyph unicode="!" glyph-name="exclam" horiz-adv-x="606" d="M217 0V180H389V0H217ZM377 1458L356 375H250L229 1458H377Z" />
<glyph unicode="&quot;" glyph-name="quotedbl" horiz-adv-x="835" d="M207 1128V1591H334V1128H207ZM502 1128V1591H629V1128H502Z" />
<glyph unicode="#" glyph-name="numbersign" horiz-adv-x="1064" d="M180 0L244 459H16V565H258L303 893H76V999H317L381 1458H487L424 999H715L778 1458H885L821 999H1049V893H807L762 565H989V459H748L684 0H578L641 459H350L287 0H180ZM655 565L700 893H410L365
565H655Z" />
<glyph unicode="$" glyph-name="dollar" horiz-adv-x="1064" d="M573 662V90Q692 108 761 188T831 371Q831 468 769 532T573 662ZM494 838V1370Q425 1364 375 1337T299 1271T262 1195T250 1120Q250 1022 305 963T494 838ZM494 -147V-29Q412 -27 343 -6T229 45T148
115T93 191T61 264L195 317Q238 192 313 140T494 86V698L469 711Q411 737 368 759T274 818T189 894T134 987T111 1104Q111 1176 134 1237T195 1341T283 1416T387 1465T494 1487V1591H573V1487Q716 1480 802 1418T952 1237L815 1192Q769 1359 573 1372V799L612 780Q668
755 703 737T785 691T861 635T917 568T958 482T971 377Q971 311 946 246T874 123T748 25T573 -25V-147H494Z" />
<glyph unicode="%" glyph-name="percent" horiz-adv-x="1593" d="M318 809T406 809T551 881T608 1104Q608 1160 599 1208T567 1299T504 1366T406 1391T308 1367T244 1299T213 1208T203 1104Q203 953 260 881ZM482 711T406 711T270 738T175 805T116 900T85 1003T76
1100Q76 1182 96 1251T155 1374T258 1458T406 1489Q568 1489 651 1380T735 1100Q735 1052 727 1003T695 900T637 806T542 738ZM1100 74T1188 74T1333 146T1391 369Q1391 425 1382 473T1350 563T1287 630T1188 655T1090 631T1026 564T995 473T985 369Q985 218 1042
146ZM1264 -25T1188 -25T1052 2T957 70T898 165T867 268T858 365Q858 476 892 561T1002 700T1188 754T1374 701T1484 562T1518 365Q1518 317 1510 268T1478 165T1420 70T1324 2ZM1139 1509H1249L453 -45H342L1139 1509Z" />
<glyph unicode="&amp;" glyph-name="ampersand" horiz-adv-x="1327" d="M586 1374Q483 1374 415 1310T346 1143Q346 1112 361 1075T391 1012T441 945T487 890T535 838Q637 886 694 927T782 1022T813 1151Q813 1243 759 1308T586 1374ZM616 748L977 352Q1007 394
1024 426T1068 551T1106 772H1233Q1223 492 1061 260L1307 0H1128L983 156Q937 116 915 98T847 49T765 5T671 -20T549 -31Q452 -31 373 -5T243 64T157 161T107 271T92 381Q92 524 175 618T412 786Q353 848 322 886T262 968T224 1055T213 1149Q213 1208 239 1268T313
1377T434 1458T592 1489T746 1460T858 1383T923 1278T946 1159Q946 1110 936 1067T910 990T867 925T816 872T752 826T687 786T616 748ZM909 248L496 694Q345 628 285 554T225 377Q225 352 230 322T257 247T312 169T410 109T557 84Q745 84 909 248Z" />
<glyph unicode="&apos;" glyph-name="quotesingle" horiz-adv-x="532" d="M203 1128V1591H330V1128H203Z" />
<glyph unicode="(" glyph-name="parenleft" horiz-adv-x="532" d="M422 1552L512 1493Q397 1341 319 1120T240 643T318 166T512 -207L422 -266Q303 -115 205 142T106 643T204 1143T422 1552Z" />
<glyph unicode=")" glyph-name="parenright" horiz-adv-x="532" d="M20 1493L111 1552Q230 1401 328 1144T426 643T328 142T111 -266L20 -207Q136 -56 214 165T293 643T215 1120T20 1493Z" />
<glyph unicode="*" glyph-name="asterisk" horiz-adv-x="1064" d="M575 1130L872 1241L913 1124L614 1038L807 793L707 721L532 979L358 721L258 793L451 1038L152 1124L193 1241L489 1130L471 1458H594L575 1130Z" />
<glyph unicode="+" glyph-name="plus" horiz-adv-x="1228" d="M561 0V465H96V571H561V1036H668V571H1133V465H668V0H561Z" />
<glyph unicode="," glyph-name="comma" horiz-adv-x="532" d="M96 -283L219 180H389L219 -283H96Z" />
<glyph unicode="-" glyph-name="hyphen" horiz-adv-x="681" d="M592 549H90V664H592V549Z" />
<glyph unicode="." glyph-name="period" horiz-adv-x="532" d="M180 0V180H352V0H180Z" />
<glyph unicode="/" glyph-name="slash" horiz-adv-x="757" d="M18 -10L635 1507L739 1470L123 -51L18 -10Z" />
<glyph unicode="0" glyph-name="zero" horiz-adv-x="1064" d="M618 -25T532 -25T375 0T255 68T168 171T108 297T73 440T54 586T49 729Q49 805 54 874T72 1021T108 1165T167 1292T254 1396T375 1463T532 1489T689 1464T810 1396T897 1293T957 1166T992 1022T1011
874T1016 729Q1016 654 1011 586T993 440T957 297T897 171T810 68T690 1ZM466 82T532 82T652 106T741 170T804 266T845 379T869 503T880 622T883 729Q883 787 881 839T869 959T846 1084T805 1197T742 1294T652 1357T532 1382T413 1358T323 1294T261 1198T220 1084T196
960T185 839T182 729Q182 673 184 622T196 503T219 379T260 266T323 170T412 107Z" />
<glyph unicode="1" glyph-name="one" horiz-adv-x="1064" d="M590 1458H721V0H588V1303L252 1040L168 1141L590 1458Z" />
<glyph unicode="2" glyph-name="two" horiz-adv-x="1064" d="M979 115V0H59V109L580 651Q706 784 771 890T836 1096Q836 1160 814 1211T759 1293T684 1345T603 1374T530 1382Q419 1382 329 1311T223 1096L80 1112Q87 1142 91 1157T106 1207T129 1264T161 1318T204
1372T261 1417T335 1456T426 1479T539 1489Q735 1489 852 1377T969 1096Q969 987 901 866T651 557L219 111Q325 115 393 115H979Z" />
<glyph unicode="3" glyph-name="three" horiz-adv-x="1064" d="M47 342L190 375Q203 247 288 165T506 82Q603 82 672 107T780 176T835 272T852 385Q852 533 766 622T502 711Q484 711 403 705V825H479Q633 823 732 899T831 1112Q831 1245 756 1313T545 1382Q480
1382 426 1366T335 1326T271 1269T226 1205T199 1141L72 1190Q181 1489 543 1489Q639 1489 715 1465T837 1402T913 1312T954 1213T965 1116Q965 1053 948 1000T906 914T842 851T773 807T702 774V770Q783 756 840 720T928 631T971 524T985 403Q985 307 958 232T885
109T776 31T649 -12T512 -25Q427 -25 358 -6T239 46T152 126T89 226T47 342Z" />
<glyph unicode="4" glyph-name="four" horiz-adv-x="1064" d="M799 1458V401H1010V295H799V0H672V295H55V434L600 1458H799ZM162 401H672V1251Q672 1286 676 1360H672L645 1300L162 401Z" />
<glyph unicode="5" glyph-name="five" horiz-adv-x="1064" d="M934 1458V1352H311L299 874Q419 928 528 928Q714 928 844 793T975 453Q975 344 939 254T840 103T692 9T510 -25Q356 -25 248 62T90 317L219 358Q225 330 236 299T273 227T330 156T414 104T526 82Q567
82 608 93T692 133T768 202T821 310T842 457Q842 534 821 597T764 701T683 769T590 809T496 821Q319 821 176 702L197 1458H934Z" />
<glyph unicode="6" glyph-name="six" horiz-adv-x="1064" d="M625 1458H788L664 1307Q393 975 313 821L317 817Q358 838 384 849T459 870T563 881Q755 881 877 754T999 438Q999 342 968 259T879 112T731 12T530 -25Q415 -25 325 12T179 116T95 266T66 449Q66 540
89 628T164 811T273 990T422 1194L625 1458ZM866 428Q866 512 838 580T764 689T661 752T545 774Q463 774 380 746T252 686Q199 602 199 477Q199 393 217 324T273 200T376 113T530 82Q685 82 775 178T866 428Z" />
<glyph unicode="7" glyph-name="seven" horiz-adv-x="1064" d="M61 1458H965V1352L330 0H180L831 1352H61V1458Z" />
<glyph unicode="8" glyph-name="eight" horiz-adv-x="1064" d="M532 -25Q437 -25 360 -2T232 61T147 151T97 255T82 362Q82 431 104 491T155 590T235 670T321 731T412 782Q377 800 344 820T270 875T198 947T146 1037T125 1143Q125 1192 137 1238T178 1331T253
1412T370 1467T532 1489Q644 1489 727 1458T854 1374T919 1264T940 1143Q940 1089 919 1037T868 948T796 876T721 821T653 782Q710 751 744 731T829 671T910 591T961 491T983 362T958 228T882 104T741 11T532 -25ZM532 82Q609 82 671 105T771 168T830 256T850 358Q850
387 846 411T837 456T819 498T795 534T759 569T718 603T665 639T605 677T532 721Q488 694 467 682T411 647T361 614T322 583T287 552T261 521T239 486T226 449T217 406T215 358Q215 246 298 164T532 82ZM532 1382Q403 1382 331 1313T258 1151Q258 1107 275 1067T314
999T378 940T450 891T532 844Q583 872 614 890T686 940T751 999T790 1067T807 1151Q807 1245 735 1313T532 1382Z" />
<glyph unicode="9" glyph-name="nine" horiz-adv-x="1064" d="M436 0H272L401 158Q664 473 752 643L748 647Q708 626 681 615T606 594T502 584Q310 584 188 711T66 1026Q66 1122 97 1205T186 1352T334 1452T535 1489Q650 1489 740 1452T886 1349T970 1199T999
1016Q999 925 976 837T901 653T792 474T643 270L436 0ZM199 1036Q199 952 227 884T301 775T404 712T520 690Q602 690 685 718T813 778Q866 862 866 987Q866 1071 848 1140T792 1264T689 1351T535 1382Q380 1382 290 1286T199 1036Z" />
<glyph unicode=":" glyph-name="colon" horiz-adv-x="532" d="M180 1022V1202H352V1022H180ZM180 0V180H352V0H180Z" />
<glyph unicode=";" glyph-name="semicolon" horiz-adv-x="532" d="M96 -283L219 180H389L219 -283H96ZM180 1202H352V1022H180V1202Z" />
<glyph unicode="&lt;" glyph-name="less" horiz-adv-x="1228" d="M96 461V575L1133 1053V934L229 518L1133 102V-16L96 461Z" />
<glyph unicode="=" glyph-name="equal" horiz-adv-x="1228" d="M96 664V770H1133V664H96ZM96 266V373H1133V266H96Z" />
<glyph unicode="&gt;" glyph-name="greater" horiz-adv-x="1228" d="M1133 575V461L96 -16V102L999 518L96 934V1053L1133 575Z" />
<glyph unicode="?" glyph-name="question" horiz-adv-x="1062" d="M555 522V375H428V551Q428 594 433 622T462 685T509 746T592 834Q642 888 662 911T705 972T736 1045T743 1130Q743 1155 740 1180T722 1243T683 1308T612 1356T502 1376Q453 1376 416 1367T355
1343T309 1300T276 1247T246 1180L109 1221Q154 1341 254 1412T506 1483Q559 1483 609 1472T709 1434T795 1367T854 1264T877 1122Q877 1026 841 955T692 768Q596 672 576 637T555 522ZM406 0V180H578V0H406Z" />
<glyph unicode="@" glyph-name="at" horiz-adv-x="1638" d="M1053 877Q1053 1081 881 1081Q814 1081 752 1049T643 965T561 849T507 716T489 588Q489 487 534 430T672 373Q750 373 823 424T945 553T1023 717T1053 877ZM1124 1008L1171 1143H1284L1075 539Q1049
466 1049 424Q1049 365 1110 365Q1196 365 1282 444T1420 640T1473 862Q1473 981 1422 1083T1286 1254T1089 1360T858 1399Q712 1399 582 1344T362 1198T219 984T166 729Q166 593 220 469T368 255T590 112T864 59Q1035 59 1192 137T1434 344H1546Q1445 172 1259
71T860 -31Q692 -31 543 29T288 192T121 435T59 729Q59 884 122 1025T293 1267T549 1429T860 1489Q1058 1489 1222 1408T1483 1182T1579 856Q1579 742 1534 633T1419 447T1261 322T1090 274Q1028 274 989 309T950 416H946Q811 274 655 274Q524 274 451 360T377
578Q377 684 415 791T518 984T680 1125T887 1180Q965 1180 1026 1138T1118 1008H1124Z" />
<glyph unicode="A" glyph-name="A" horiz-adv-x="1327" d="M2 0L586 1458H750L1325 0H1180L1022 416H301L139 0H2ZM346 522H979L721 1188Q692 1257 666 1339H662Q626 1238 604 1184L346 522Z" />
<glyph unicode="B" glyph-name="B" horiz-adv-x="1214" d="M164 0V1458H545Q811 1458 933 1370T1055 1083Q1055 1026 1040 979T1004 902T946 844T881 802T807 766Q841 752 860 744T914 717T970 681T1018 636T1060 578T1085 504T1096 412Q1096 0 557 0H164ZM291
1352V815H590Q750 815 836 878T922 1087Q922 1151 903 1199T851 1275T769 1321T669 1345T553 1352H291ZM291 709V106H537Q587 106 626 108T712 118T792 138T860 173T915 225T950 298T963 397Q963 556 877 632T590 709H291Z" />
<glyph unicode="C" glyph-name="C" horiz-adv-x="1290" d="M1096 381L1214 346Q1191 283 1166 235T1097 134T999 47T863 -9T680 -31Q552 -31 450 12T283 126T173 294T111 494T92 709Q92 880 130 1020T242 1266T437 1430T715 1489Q1079 1489 1196 1137L1067 1108Q971
1382 719 1382Q630 1382 557 1357T433 1290T345 1192T284 1076T248 953T230 836T225 735Q225 628 238 536T286 357T372 210T508 113T700 76Q810 76 886 111T1010 211T1096 381Z" />
<glyph unicode="D" glyph-name="D" horiz-adv-x="1327" d="M156 1458H545Q667 1458 768 1430T939 1356T1063 1247T1149 1118T1201 979T1228 846T1235 729Q1235 660 1226 594T1193 453T1132 316T1035 193T896 92T708 25T465 0H156V1458ZM283 1352V106H479Q577 106
667 128T836 200T975 321T1068 498T1102 729Q1102 788 1095 845T1068 965T1020 1082T943 1187T834 1274T688 1331T500 1352H283Z" />
<glyph unicode="E" glyph-name="E" horiz-adv-x="1099" d="M156 0V1458H991V1352H283V815H956V709H283V106H1010V0H156Z" />
<glyph unicode="F" glyph-name="F" horiz-adv-x="1062" d="M156 0V1458H979V1352H283V793H940V686H283V0H156Z" />
<glyph unicode="G" glyph-name="G" horiz-adv-x="1327" d="M1196 1137L1067 1108Q971 1382 719 1382Q630 1382 557 1357T433 1290T345 1192T284 1076T248 953T230 836T225 735Q225 627 238 535T287 357T376 210T518 113T719 76Q809 76 882 94T1049 158V653H727V760H1176V102Q1110
69 1076 54T976 15T842 -20T698 -31Q565 -31 460 12T287 125T174 293T111 493T92 709Q92 880 130 1020T242 1266T437 1430T715 1489Q1079 1489 1196 1137Z" />
<glyph unicode="H" glyph-name="H" horiz-adv-x="1327" d="M164 0V1458H291V834H1036V1458H1163V0H1036V727H291V0H164Z" />
<glyph unicode="I" glyph-name="I" horiz-adv-x="454" d="M164 0V1458H291V0H164Z" />
<glyph unicode="J" glyph-name="J" horiz-adv-x="645" d="M494 1458V322Q494 166 425 75T215 -16Q162 -16 121 -7T61 12T12 39L74 162Q156 98 215 98Q367 98 367 360V1458H494Z" />
<glyph unicode="K" glyph-name="K" horiz-adv-x="1138" d="M156 0V1458H283V797L920 1458H1096L422 766L1137 0H950L283 729V0H156Z" />
<glyph unicode="L" glyph-name="L" horiz-adv-x="948" d="M164 0V1458H291V106H938V0H164Z" />
<glyph unicode="M" glyph-name="M" horiz-adv-x="1705" d="M156 1458H387L856 221L1329 1458H1550V0H1423V1339L1419 1337L901 0H795L287 1341L283 1343V0H156V1458Z" />
<glyph unicode="N" glyph-name="N" horiz-adv-x="1366" d="M156 0V1458H328L1079 195H1083V1458H1210V0H1044L287 1268H283V0H156Z" />
<glyph unicode="O" glyph-name="O" horiz-adv-x="1404" d="M225 727Q225 666 231 605T254 479T294 357T357 247T444 158T558 98T702 76Q792 76 867 105T993 185T1081 299T1140 438T1170 584T1180 727Q1180 825 1165 915T1115 1092T1026 1242T889 1343T702 1382T515
1344T379 1242T291 1093T240 916T225 727ZM92 711Q92 812 106 905T150 1086T229 1247T344 1374T501 1459T702 1489T902 1459T1060 1374T1175 1247T1254 1087T1298 905T1313 711Q1313 648 1306 583T1279 444T1230 304T1152 175T1042 68T893 -4T702 -31T512 -4T364
68T254 175T176 303T127 444T100 583T92 711Z" />
<glyph unicode="P" glyph-name="P" horiz-adv-x="1175" d="M291 733H608Q766 733 858 808T950 1042Q950 1201 858 1276T608 1352H291V733ZM164 0V1458H623Q850 1458 966 1348T1083 1042Q1083 848 967 738T623 627H291V0H164Z" />
<glyph unicode="Q" glyph-name="Q" horiz-adv-x="1404" d="M225 727Q225 666 231 605T254 479T294 357T357 247T444 158T558 98T702 76Q792 76 867 105T993 185T1081 299T1140 438T1170 584T1180 727Q1180 825 1165 915T1115 1092T1026 1242T889 1343T702 1382T515
1344T379 1242T291 1093T240 916T225 727ZM1204 -348L782 -25Q758 -29 743 -29Q731 -31 702 -31Q599 -31 512 -4T364 68T254 175T176 303T127 444T100 583T92 711Q92 812 106 905T150 1086T229 1247T344 1374T501 1459T702 1489T902 1459T1060 1374T1175 1247T1254
1087T1298 905T1313 711Q1313 638 1303 564T1267 404T1200 247T1093 113T940 16L1296 -236L1204 -348Z" />
<glyph unicode="R" glyph-name="R" horiz-adv-x="1175" d="M156 0V1458H606Q737 1458 833 1419T986 1292T1044 1071Q1044 933 973 841T768 709L1124 0H965L645 688H283V0H156ZM283 1352V795H631Q703 795 756 816T838 866T884 937T906 1008T911 1071Q911 1209 823
1280T575 1352H283Z" />
<glyph unicode="S" glyph-name="S" horiz-adv-x="1062" d="M61 264L195 317Q218 250 251 203T326 130T412 95T508 84Q655 84 743 169T831 371Q831 412 821 446T787 510T736 564T663 614T576 661T469 711Q411 737 368 759T274 818T189 894T134 987T111 1104Q111
1200 151 1276T256 1397T392 1465T535 1489Q696 1489 790 1427T952 1237L815 1192Q765 1374 539 1374Q473 1374 421 1357T337 1312T286 1250T258 1183T250 1120Q250 1084 258 1053T278 998T316 950T366 907T434 866T514 825T612 780Q668 755 703 737T785 691T861
635T917 568T958 482T971 377Q971 306 942 236T857 105T712 7T510 -31Q425 -31 353 -11T234 40T150 112T94 190T61 264Z" />
<glyph unicode="T" glyph-name="T" horiz-adv-x="1024" d="M12 1458H1012V1352H575V0H449V1352H12V1458Z" />
<glyph unicode="U" glyph-name="U" horiz-adv-x="1327" d="M156 1458H283V569Q283 464 304 378T369 222T488 115T664 76Q764 76 839 114T958 222T1023 377T1044 569V1458H1171V545Q1171 433 1149 342T1088 190T1000 84T892 15T778 -20T664 -31Q605 -31 550 -20T435
15T327 83T239 189T178 342T156 545V1458Z" />
<glyph unicode="V" glyph-name="V" horiz-adv-x="1175" d="M2 1458H145L588 115H592L1040 1458H1174L668 0H502L2 1458Z" />
<glyph unicode="W" glyph-name="W" horiz-adv-x="1744" d="M12 1458H154L467 164H471L782 1458H952L1278 164H1282L1606 1458H1733L1358 0H1194L870 1294H866L553 0H385L12 1458Z" />
<glyph unicode="X" glyph-name="X" horiz-adv-x="1214" d="M522 762L74 1458H227L567 924Q596 882 612 848Q620 864 636 889T657 924L995 1458H1145L694 762L1188 0H1026L645 600Q611 655 602 676Q584 642 555 596L178 0H27L522 762Z" />
<glyph unicode="Y" glyph-name="Y" horiz-adv-x="1175" d="M522 0V612L12 1458H168L532 831Q550 801 590 723Q613 771 647 831L1020 1458H1163L649 612V0H522Z" />
<glyph unicode="Z" glyph-name="Z" horiz-adv-x="1024" d="M70 1458H952V1350L201 106H975V0H49V109L801 1352H70V1458Z" />
<glyph unicode="[" glyph-name="bracketleft" horiz-adv-x="532" d="M281 -168H475V-266H154V1552H475V1454H281V-168Z" />
<glyph unicode="\" glyph-name="backslash" horiz-adv-x="757" d="M123 1507L739 -10L635 -51L18 1470L123 1507Z" />
<glyph unicode="]" glyph-name="bracketright" horiz-adv-x="532" d="M379 1552V-266H57V-168H252V1454H57V1552H379Z" />
<glyph unicode="^" glyph-name="asciicircum" horiz-adv-x="1228" d="M1020 530L614 1325L209 530H90L563 1458H666L1139 530H1020Z" />
<glyph unicode="_" glyph-name="underscore" horiz-adv-x="1024" d="M0 -256V-154H1024V-256H0Z" />
<glyph unicode="`" glyph-name="grave" horiz-adv-x="454" d="M10 1640H166L389 1352H285L10 1640Z" />
<glyph unicode="a" glyph-name="a" horiz-adv-x="1062" d="M238 893L131 928Q152 991 185 1042T267 1136T386 1203T541 1227Q630 1227 698 1203T809 1140T877 1046T914 934T924 813V295Q924 100 932 0H813L805 193Q761 144 727 112T643 45T535 -7T410 -25Q254
-25 164 69T74 311Q74 388 94 449T147 553T231 627T335 676T457 705T586 719T721 723H805Q800 889 781 956Q746 1077 631 1108Q586 1120 526 1120Q487 1120 454 1112T396 1093T349 1060T312 1024T282 979T259 937T238 893ZM805 313V625H725Q655 625 601 622T490
611T392 589T313 553T252 499T215 425T201 326Q201 262 221 214T275 140T348 102T430 90Q474 90 514 101T582 126T654 175T722 233T805 313Z" />
<glyph unicode="b" glyph-name="b" horiz-adv-x="1138" d="M154 0V1591H272V1032H276Q345 1125 425 1176T631 1227Q705 1227 766 1206T871 1148T947 1060T1001 953T1035 834T1052 714T1057 598Q1057 495 1040 403T986 232T898 96T773 7T614 -25Q419 -25 276 170H272V0H154ZM272
903V297Q272 293 285 272T326 220T392 160T486 111T602 90T711 110T793 162T852 241T892 334T915 435T927 531T930 618Q930 689 921 754T889 886T830 1002T736 1081T604 1112Q498 1112 420 1058T272 903Z" />
<glyph unicode="c" glyph-name="c" horiz-adv-x="1024" d="M963 928L854 893Q798 1018 730 1069T563 1120Q537 1120 511 1115T450 1096T386 1059T327 996T276 903T242 774T229 604Q229 359 318 221T559 82Q615 82 666 103T754 158T817 231T860 309L969 266Q945
220 927 190T871 115T797 43T702 -4T580 -25Q496 -25 426 -3T308 56T222 146T162 256T126 379T107 504T102 625Q102 891 237 1059T586 1227Q827 1227 963 928Z" />
<glyph unicode="d" glyph-name="d" horiz-adv-x="1138" d="M985 1591V0H866V170H862Q719 -25 524 -25Q416 -25 331 24T192 159T110 357T82 598Q82 657 86 713T104 834T137 953T191 1059T268 1147T372 1205T508 1227Q633 1227 713 1176T862 1032H866V1591H985ZM866
297V903Q796 1004 719 1058T535 1112Q461 1112 403 1082T310 1002T251 887T218 755T209 618Q209 574 212 532T224 435T247 335T286 242T345 163T428 110T537 90T653 110T746 160T811 220T853 272T866 297Z" />
<glyph unicode="e" glyph-name="e" horiz-adv-x="1099" d="M1004 578H209Q209 527 214 477T233 368T273 260T335 170T429 106T557 82Q618 82 669 98T752 137T812 194T853 253T881 311L985 270Q948 182 899 122T793 30T680 -13T559 -25Q475 -25 406 -3T288 56T202
146T142 256T106 379T87 504T82 625Q82 891 217 1059T565 1227Q659 1227 734 1194T859 1105T942 973T989 813T1004 639V578ZM209 676H877Q870 891 784 1005T555 1120Q416 1120 316 1003T209 676Z" />
<glyph unicode="f" glyph-name="f" horiz-adv-x="606" d="M223 0V1004H43V1110H223V1300Q223 1381 245 1441T307 1535T393 1583T494 1599Q576 1599 637 1581V1464Q565 1493 518 1493Q482 1493 453 1483T406 1459T375 1420T356 1376T347 1326T343 1279T342 1235V1110H573V1004H342V0H223Z"
/>
<glyph unicode="g" glyph-name="g" horiz-adv-x="1062" d="M1049 1202V1104H836Q870 1070 889 1045T924 966T940 842Q940 788 928 738T883 637T803 549T676 489T500 465Q433 465 399 477Q379 468 351 434T322 365Q322 328 342 312Q368 293 505 260Q524 255 573
244L647 227Q694 216 720 210T792 189T865 160T926 121T979 68T1011 0T1024 -88Q1024 -243 890 -328T514 -414Q300 -414 172 -339T43 -115Q43 -79 51 -46T79 16T116 68T168 118T222 161T283 205Q266 211 255 217T228 236T204 269T195 317Q195 375 223 414T313 502Q92
596 92 838Q92 1008 200 1117T510 1227Q608 1227 680 1202H1049ZM512 563Q593 563 659 592T769 689T813 850Q813 977 732 1052T520 1128Q385 1128 302 1054T219 850Q219 756 262 689T370 593T512 563ZM596 121L395 168Q386 168 352 147T277 91T203 6T170 -96Q170
-197 260 -252T528 -307Q603 -307 667 -295T784 -257T867 -187T897 -84Q897 -1 838 37T596 121Z" />
<glyph unicode="h" glyph-name="h" horiz-adv-x="1138" d="M154 0V1591H272V995Q317 1040 342 1063T413 1124T495 1179T581 1212T684 1227Q711 1227 742 1222T819 1198T900 1147T960 1055T985 915V0H866V891Q868 994 818 1053T659 1112Q610 1112 563 1097T481
1063T404 1006T337 945T272 874V0H154Z" />
<glyph unicode="i" glyph-name="i" horiz-adv-x="454" d="M168 1202H287V0H168V1202ZM297 1591V1434H158V1591H297Z" />
<glyph unicode="j" glyph-name="j" horiz-adv-x="454" d="M287 1202V-139Q287 -264 228 -339T45 -414Q5 -414 -47 -403V-283Q-9 -299 37 -299Q116 -299 142 -253T168 -104V1202H287ZM158 1434V1591H297V1434H158Z" />
<glyph unicode="k" glyph-name="k" horiz-adv-x="985" d="M154 0V1591H272V659L784 1202H952L416 651L987 0H817L272 635V0H154Z" />
<glyph unicode="l" glyph-name="l" horiz-adv-x="454" d="M168 0V1591H287V0H168Z" />
<glyph unicode="m" glyph-name="m" horiz-adv-x="1744" d="M145 0V1202H264V995Q299 1036 322 1060T385 1121T461 1177T546 1212T647 1227Q702 1227 747 1210T819 1173T869 1118T900 1066T920 1020Q1096 1227 1307 1227Q1367 1227 1415 1211T1493 1172T1544 1114T1576
1051T1592 987T1598 935T1599 899V0H1481V840Q1481 1112 1284 1112Q1190 1112 1112 1067T932 920V0H813V827Q813 1112 614 1112Q527 1112 429 1038T264 870V0H145Z" />
<glyph unicode="n" glyph-name="n" horiz-adv-x="1138" d="M154 0V1202H272V995Q317 1040 342 1063T413 1124T495 1179T581 1212T684 1227Q711 1227 742 1222T819 1198T900 1147T960 1055T985 915V0H866V891Q868 994 818 1053T659 1112Q610 1112 563 1097T481
1063T404 1006T337 945T272 874V0H154Z" />
<glyph unicode="o" glyph-name="o" horiz-adv-x="1138" d="M209 623Q209 359 304 221T569 82Q739 82 834 220T930 623Q930 719 910 804T849 962T735 1077T569 1120T403 1078T290 963T229 805T209 623ZM82 596Q82 677 94 756T139 923T225 1076T366 1184T569 1227Q652
1227 722 1205T841 1145T928 1055T991 947T1030 828T1051 708T1057 596Q1057 502 1040 415T985 247T892 106T753 11T569 -25T385 10T247 106T154 246T99 414T82 596Z" />
<glyph unicode="p" glyph-name="p" horiz-adv-x="1138" d="M154 -385V1202H272V1032H276Q419 1227 614 1227Q700 1227 773 1195T898 1106T986 971T1039 800T1057 604Q1057 545 1053 489T1035 368T1002 249T948 143T871 55T767 -3T631 -25Q507 -25 426 26T276 170H272V-385H154ZM272
905V299Q342 198 420 144T604 90Q678 90 736 121T829 200T888 316T921 448T930 584Q930 628 927 670T915 767T892 867T853 960T794 1039T711 1092T602 1112T486 1092T393 1042T327 982T285 930T272 905Z" />
<glyph unicode="q" glyph-name="q" horiz-adv-x="1138" d="M985 1202V-385H866V170H862Q817 110 776 72T664 4T508 -25Q434 -25 373 -4T268 54T192 142T138 249T104 368T87 488T82 604Q82 733 110 845T192 1043T331 1178T524 1227Q719 1227 862 1032H866V1202H985ZM866
299V905Q866 909 853 930T812 982T746 1042T653 1091T537 1112T428 1092T346 1040T287 961T247 868T224 767T212 671T209 584Q209 514 218 449T250 316T309 201T403 121T535 90Q641 90 718 144T866 299Z" />
<glyph unicode="r" glyph-name="r" horiz-adv-x="720" d="M168 0V1202H287V983Q326 1026 343 1045T392 1094T441 1137T489 1167T546 1191T608 1204T686 1210V1083Q585 1079 523 1057T411 990T287 848V0H168Z" />
<glyph unicode="s" glyph-name="s" horiz-adv-x="948" d="M846 965L737 930Q674 1120 481 1120Q362 1120 299 1061T236 922Q236 835 277 790T416 711L555 659Q639 629 692 603T793 537T861 443T883 315Q883 247 862 189T795 81T669 4T483 -25Q393 -25 319 -1T195
67T113 162T66 276L178 313Q251 82 477 82Q618 82 687 144T756 313Q756 403 703 452T547 537L393 592Q249 642 179 712T109 909Q109 1039 211 1133T485 1227Q625 1227 712 1163T846 965Z" />
<glyph unicode="t" glyph-name="t" horiz-adv-x="645" d="M205 1110V1425L324 1475V1110H608V1004H324V307Q324 188 353 135T459 82Q537 82 621 127V10Q538 -25 455 -25Q414 -25 381 -19T323 -3T279 24T248 57T227 99T214 142T208 191T206 240T205 291V1004H25V1110H205Z" />
<glyph unicode="u" glyph-name="u" horiz-adv-x="1138" d="M985 1202V0H866V207Q822 162 797 138T726 78T645 23T558 -10T455 -25Q428 -25 397 -20T320 4T239 55T179 147T154 287V1202H272V311Q270 208 321 149T479 90Q528 90 575 105T657 139T734 196T801 258T866
328V1202H985Z" />
<glyph unicode="v" glyph-name="v" horiz-adv-x="985" d="M414 0L2 1202H141L494 115H498L852 1202H983L569 0H414Z" />
<glyph unicode="w" glyph-name="w" horiz-adv-x="1554" d="M6 1202H145L428 115H432L707 1202H854L1139 119H1143L1419 1202H1548L1221 0H1055L782 1036H778L510 0H348L6 1202Z" />
<glyph unicode="x" glyph-name="x" horiz-adv-x="985" d="M418 631L53 1202H199L498 723L817 1202H952L575 637L983 0H836L498 541L147 0H2L418 631Z" />
<glyph unicode="y" glyph-name="y" horiz-adv-x="985" d="M-2 1202H135L498 156H502L858 1202H987L496 -190Q450 -318 391 -366T252 -414Q202 -414 147 -399L154 -287Q214 -299 227 -299Q285 -299 317 -270T369 -188L434 -6L-2 1202Z" />
<glyph unicode="z" glyph-name="z" horiz-adv-x="948" d="M47 0V98L737 1096H72V1202H889V1104L197 106H901V0H47Z" />
<glyph unicode="{" glyph-name="braceleft" horiz-adv-x="532" d="M98 592V694Q170 694 195 749T221 963V1315Q221 1439 272 1495T430 1552H526V1454H477Q408 1454 378 1428T348 1325V897Q348 688 238 645V641Q348 598 348 389V-39Q348 -115 378 -141T477 -168H526V-266H430Q323
-266 272 -210T221 -29V324Q221 483 196 537T98 592Z" />
<glyph unicode="|" glyph-name="bar" horiz-adv-x="454" d="M174 -512V1536H281V-512H174Z" />
<glyph unicode="}" glyph-name="braceright" horiz-adv-x="532" d="M434 694V592Q363 592 337 537T311 324V-29Q311 -154 261 -210T102 -266H6V-168H55Q124 -168 154 -142T184 -39V389Q184 598 295 641V645Q184 688 184 897V1325Q184 1401 154 1427T55 1454H6V1552H102Q210
1552 260 1496T311 1315V963Q311 805 337 750T434 694Z" />
<glyph unicode="~" glyph-name="asciitilde" horiz-adv-x="1228" d="M1014 649L1087 571Q1064 539 1049 519T1008 473T958 432T901 406T831 395Q746 395 623 463Q495 535 403 535Q339 535 297 496T215 387L141 465Q233 641 397 641Q493 641 625 575Q773 502 834
502Q872 502 907 526T963 576T1014 649Z" />
</font>
</defs>
</svg>
