<?xml version="1.0" standalone="no"?> <!DOCTYPE svg PUBLIC "-//W3C//DTD SVG 1.0//EN" "http://www.w3.org/TR/2001/REC-SVG-20010904/DTD/svg10.dtd" > <svg xmlns="http://www.w3.org/2000/svg" width="100%" height="100%">
<defs >
<font id="vectoraltstd-bold" horiz-adv-x="1136" ><font-face
    font-family="Vectora LT Std Light"
    units-per-em="2048"
    panose-1="2 11 7 6 3 5 3 2 2 4"
    ascent="1591"
    descent="-457"
    alphabetic="0" />
<missing-glyph horiz-adv-x="1024" d="M0 0V1434H1024V0H0ZM512 809L860 1331H164L512 809ZM573 717L922 195V1239L573 717ZM164 102H860L512 625L164 102ZM102 1239V195L451 717L102 1239Z" />
<glyph unicode=" " glyph-name="space" horiz-adv-x="606" />
<glyph unicode="!" glyph-name="exclam" horiz-adv-x="679" d="M229 461L193 1458H487L451 461H229ZM209 0V270H471V0H209Z" />
<glyph unicode="&quot;" glyph-name="quotedbl" horiz-adv-x="681" d="M418 1073V1591H627V1073H418ZM55 1073V1591H264V1073H55Z" />
<glyph unicode="#" glyph-name="numbersign" horiz-adv-x="1212" d="M616 0L676 432H455L397 0H225L285 432H94V588H307L344 870H154V1026H367L426 1458H596L537 1026H758L815 1458H987L928 1026H1118V870H905L868 588H1059V432H846L786 0H616ZM696 588L735 870H516L477
588H696Z" />
<glyph unicode="$" glyph-name="dollar" horiz-adv-x="1212" d="M553 -178V-35Q454 -33 372 -6T240 58T151 143T97 228T72 299L330 377Q355 216 553 182V627Q492 639 437 658T320 713T214 795T140 911T111 1067Q111 1143 141 1217T225 1353T365 1453T553 1493V1636H668V1493Q763
1493 839 1471T962 1415T1042 1338T1090 1255T1110 1180L856 1124Q837 1190 786 1233T668 1276V860Q917 800 1030 701T1143 428Q1143 314 1106 227T1003 86T853 2T668 -35V-178H553ZM553 891V1276Q469 1273 417 1223T365 1090Q365 1018 410 974T553 891ZM668 596V182Q764
198 820 250T877 383Q877 422 865 453T836 504T787 543T732 571T668 596Z" />
<glyph unicode="%" glyph-name="percent" horiz-adv-x="1705" d="M424 852Q467 852 498 873T546 931T570 1009T578 1100Q578 1348 424 1348Q381 1348 350 1327T302 1269T278 1191T270 1100Q270 852 424 852ZM424 707Q247 707 161 814T74 1100Q74 1177 96 1246T161
1371T271 1460T424 1493Q517 1493 585 1464T694 1380T754 1256T774 1100Q774 1023 752 954T687 829T577 740T424 707ZM1282 -35Q1105 -35 1019 72T932 358Q932 435 954 504T1019 630T1129 719T1282 752Q1375 752 1443 723T1552 639T1612 515T1632 358Q1632 281
1610 212T1545 87T1435 -2T1282 -35ZM1282 111Q1338 111 1374 149T1423 239T1436 358Q1436 606 1282 606Q1239 606 1208 585T1160 527T1136 449T1128 358Q1128 111 1282 111ZM373 -51L1165 1509H1327L535 -51H373Z" />
<glyph unicode="&amp;" glyph-name="ampersand" horiz-adv-x="1517" d="M465 1124Q465 1081 487 1039T535 968T612 893Q734 964 778 1008T823 1126Q823 1196 776 1243T645 1290Q556 1290 511 1243T465 1124ZM1147 0L1040 125Q929 44 843 10T616 -25Q504 -25 413
-2T260 63T156 159T95 278T76 410Q76 462 88 509T118 590T164 656T216 707T274 748T326 777T373 799Q300 855 241 943T182 1135Q182 1234 224 1307T336 1419T484 1475T647 1493Q746 1493 825 1472T955 1417T1038 1336T1084 1243T1098 1147Q1098 1093 1084 1046T1042
961T986 894T916 838T848 796T782 762L1067 463Q1100 506 1117 536T1152 629T1174 778H1436Q1436 636 1386 507T1239 274L1491 0H1147ZM891 287L541 647Q513 633 496 623T451 592T407 549T378 494T365 422Q365 312 438 245T621 178Q773 178 891 287Z" />
<glyph unicode="&apos;" glyph-name="quotesingle" horiz-adv-x="454" d="M129 1073V1591H338V1073H129Z" />
<glyph unicode="(" glyph-name="parenleft" horiz-adv-x="645" d="M596 -168L434 -272Q85 199 82 670Q85 1141 434 1612L596 1507Q549 1427 521 1376T454 1236T392 1071T354 888T336 670Q337 558 353 452T392 269T453 104T520 -36T596 -168Z" />
<glyph unicode=")" glyph-name="parenright" horiz-adv-x="645" d="M49 1507L211 1612Q560 1141 563 670Q560 199 211 -272L49 -168Q96 -88 124 -36T192 104T253 269T291 452T309 670Q308 782 292 888T253 1071T192 1236T124 1375T49 1507Z" />
<glyph unicode="*" glyph-name="asterisk" horiz-adv-x="1024" d="M197 770L397 1010L92 1090L147 1262L442 1143L418 1458H606L582 1143L877 1262L932 1090L627 1010L827 770L682 664L512 930L342 664L197 770Z" />
<glyph unicode="+" glyph-name="plus" horiz-adv-x="1228" d="M516 616V1036H713V616H1130V420H713V0H516V420H98V616H516Z" />
<glyph unicode="," glyph-name="comma" horiz-adv-x="606" d="M195 270H461L276 -248H55L195 270Z" />
<glyph unicode="-" glyph-name="hyphen" horiz-adv-x="645" d="M72 717H575V508H72V717Z" />
<glyph unicode="." glyph-name="period" horiz-adv-x="606" d="M172 0V270H434V0H172Z" />
<glyph unicode="/" glyph-name="slash" horiz-adv-x="796" d="M4 0L606 1528L793 1460L190 -68L4 0Z" />
<glyph unicode="0" glyph-name="zero" horiz-adv-x="1212" d="M365 735Q365 653 369 587T383 456T410 344T454 259T519 203T606 184Q665 184 708 212T778 288T821 408T842 558T848 735Q848 810 845 869T834 995T808 1110T766 1200T700 1262T606 1284T513 1263T447
1200T404 1110T379 995T368 869T365 735ZM70 735Q70 822 76 899T99 1054T142 1196T211 1316T308 1411T438 1471T606 1493Q733 1493 829 1451T984 1339T1079 1168T1129 964T1143 735Q1143 612 1128 506T1075 300T978 130T824 18T606 -25T389 17T235 130T138 300T85
506T70 735Z" />
<glyph unicode="1" glyph-name="one" horiz-adv-x="1212" d="M614 0V1159L295 903L156 1075L647 1458H909V0H614Z" />
<glyph unicode="2" glyph-name="two" horiz-adv-x="1212" d="M94 0V209L514 621Q558 663 587 693T660 775T730 871T777 971T797 1079Q797 1172 744 1228T590 1284Q527 1284 481 1261T411 1198T375 1119T362 1036L92 1083Q124 1275 255 1384T606 1493Q823 1493
951 1375T1079 1083Q1079 952 1021 843T848 616L438 209H1085V0H94Z" />
<glyph unicode="3" glyph-name="three" horiz-adv-x="1212" d="M367 1098L111 1171Q235 1493 606 1493Q675 1493 737 1483T862 1446T969 1378T1043 1270T1071 1118Q1071 1001 999 910T780 772V768Q1100 713 1100 401Q1100 342 1085 286T1030 172T933 72T782 2T571
-25Q467 -25 383 3T247 72T159 169T106 272T84 365L346 422Q357 314 416 249T582 184T746 253T805 418Q805 537 733 593T532 649H449V866H520Q633 866 710 919T788 1081Q788 1168 737 1226T588 1284Q556 1284 529 1277T482 1261T445 1235T417 1204T396 1168T381
1133T367 1098Z" />
<glyph unicode="4" glyph-name="four" horiz-adv-x="1212" d="M684 0V252H66V498L657 1458H958V461H1151V252H958V0H684ZM684 461V862Q684 1002 709 1171H696Q672 1108 596 973L301 461H684Z" />
<glyph unicode="5" glyph-name="five" horiz-adv-x="1212" d="M1044 1458V1249H463L455 932Q526 958 627 958Q830 958 964 822T1098 467Q1098 331 1038 220T861 42T588 -25Q381 -25 272 68T121 365L367 416Q367 376 378 338T411 264T476 206T573 184Q679 184 741
250T803 449Q803 602 718 676T487 750Q353 750 201 662L217 1458H1044Z" />
<glyph unicode="6" glyph-name="six" horiz-adv-x="1212" d="M618 1458H965L778 1235Q571 996 514 885L518 881Q607 924 702 924Q828 924 923 861T1066 695T1114 469Q1114 368 1082 280T989 124T831 15T610 -25Q518 -25 442 -5T313 49T222 129T159 221T122 319T103
410T98 487Q98 625 156 771T305 1038L618 1458ZM819 453Q819 567 758 641T584 715Q550 715 512 706T450 686T426 670Q381 576 381 442Q381 329 437 259T584 184Q808 184 819 453Z" />
<glyph unicode="7" glyph-name="seven" horiz-adv-x="1212" d="M137 0L768 1233H104V1458H1073V1251L461 0H137Z" />
<glyph unicode="8" glyph-name="eight" horiz-adv-x="1212" d="M795 1122Q795 1201 743 1248T610 1296Q511 1296 459 1248T406 1120Q406 985 621 883Q795 997 795 1122ZM600 659L530 610Q457 557 423 501T389 373Q389 284 445 228T602 172Q703 172 757 231T811
389Q811 524 651 627L600 659ZM612 1493Q822 1493 945 1397T1069 1149Q1069 1090 1050 1037T1006 948T941 878T874 826T811 788Q859 761 891 741T967 682T1039 605T1086 510T1106 389Q1106 309 1074 236T982 104T826 10T610 -25Q482 -25 382 9T224 100T136 226T106
371Q106 413 115 450T135 514T171 572T215 621T273 668T335 711T406 756Q380 769 365 776T318 804T264 843T215 891T171 952T143 1026T131 1116Q131 1238 198 1325T372 1452T612 1493Z" />
<glyph unicode="9" glyph-name="nine" horiz-adv-x="1212" d="M248 0L434 223Q641 473 698 584L694 588Q614 545 510 545Q384 545 289 608T146 774T98 999Q98 1100 130 1188T223 1345T381 1453T602 1493Q694 1493 770 1473T899 1419T991 1340T1053 1248T1090 1150T1109
1059T1114 981Q1114 842 1056 697T907 430L594 0H248ZM393 1016Q393 901 454 828T629 754Q662 754 700 763T762 783T786 799Q831 891 831 1026Q831 1139 776 1209T629 1284Q404 1284 393 1016Z" />
<glyph unicode=":" glyph-name="colon" horiz-adv-x="606" d="M172 954V1225H434V954H172ZM172 0V270H434V0H172Z" />
<glyph unicode=";" glyph-name="semicolon" horiz-adv-x="606" d="M195 270H461L276 -248H55L195 270ZM172 954V1225H434V954H172Z" />
<glyph unicode="&lt;" glyph-name="less" horiz-adv-x="1228" d="M1135 180V-16L94 436V600L1135 1053V856L350 518L1135 180Z" />
<glyph unicode="=" glyph-name="equal" horiz-adv-x="1228" d="M1130 836V639H98V836H1130ZM1130 397V201H98V397H1130Z" />
<glyph unicode="&gt;" glyph-name="greater" horiz-adv-x="1228" d="M94 -16V180L879 518L94 856V1053L1135 600V436L94 -16Z" />
<glyph unicode="?" glyph-name="question" horiz-adv-x="1099" d="M438 461V563Q438 701 520 786L629 895Q691 957 715 1008T739 1116Q739 1190 691 1237T555 1284Q511 1284 477 1269T422 1233T388 1184T368 1136T360 1098L102 1151Q188 1493 578 1493Q776 1493
893 1390T1010 1120Q1010 959 862 825L774 745Q664 648 664 563V461H438ZM420 0V270H682V0H420Z" />
<glyph unicode="@" glyph-name="at" horiz-adv-x="1638" d="M594 651Q594 570 638 518T756 465Q828 465 888 514T980 635T1012 778Q1012 852 966 902T850 952Q779 952 719 905T626 789T594 651ZM1272 1114L1151 616Q1128 530 1128 498Q1128 451 1169 451Q1255
451 1330 560T1405 825Q1405 985 1330 1103T1130 1279T850 1337Q677 1337 544 1257T338 1037T266 725Q266 548 344 410T560 197T874 121Q1004 121 1118 166T1315 297H1475Q1370 139 1207 52T852 -35Q688 -35 544 23T298 183T137 426T78 729Q78 886 139 1029T301
1273T537 1433T815 1493Q980 1493 1121 1444T1357 1310T1507 1111T1561 868Q1561 782 1541 704T1486 568T1408 460T1316 377T1219 321T1128 287T1053 276Q1004 276 971 306T934 393H930Q832 276 692 276Q562 276 476 378T389 623Q389 720 421 813T510 979T651 1096T834
1141Q994 1141 1073 1001L1104 1114H1272Z" />
<glyph unicode="A" glyph-name="A" horiz-adv-x="1478" d="M512 565H963L801 1024Q762 1130 743 1225H733Q718 1130 680 1024L512 565ZM4 0L553 1458H944L1475 0H1153L1036 340H434L313 0H4Z" />
<glyph unicode="B" glyph-name="B" horiz-adv-x="1327" d="M444 225H713Q757 225 795 235T866 268T918 330T938 426Q938 635 721 635H444V225ZM150 0V1458H743Q863 1458 953 1429T1096 1348T1174 1232T1200 1090Q1200 1033 1185 982T1139 885T1056 806T936 760V756Q992
749 1044 724T1140 657T1212 549T1239 403Q1239 207 1114 104T735 0H150ZM444 860H696Q788 860 846 908T905 1055Q905 1233 725 1233H444V860Z" />
<glyph unicode="C" glyph-name="C" horiz-adv-x="1402" d="M1315 1079L1030 1020Q1019 1125 948 1192T772 1260Q603 1260 508 1129T412 729T498 330T741 199Q800 199 849 216T932 260T989 322T1026 391T1044 457L1331 393Q1328 372 1320 346T1292 276T1244 193T1167
111T1059 37T912 -15T721 -35Q429 -35 259 162T88 729Q88 914 138 1059T279 1299T495 1443T772 1493Q993 1493 1128 1385T1315 1079Z" />
<glyph unicode="D" glyph-name="D" horiz-adv-x="1478" d="M150 0V1458H727Q817 1458 903 1437T1080 1363T1237 1230T1346 1019T1389 725Q1389 367 1188 184T629 0H150ZM457 1225V233H641Q780 233 877 300T1019 478T1065 731Q1064 831 1041 916T970 1073T839 1184T645
1225H457Z" />
<glyph unicode="E" glyph-name="E" horiz-adv-x="1214" d="M150 0V1458H1096V1225H457V868H1061V635H457V233H1116V0H150Z" />
<glyph unicode="F" glyph-name="F" horiz-adv-x="1175" d="M150 0V1458H1100V1225H457V829H1073V596H457V0H150Z" />
<glyph unicode="G" glyph-name="G" horiz-adv-x="1441" d="M1329 1118L1044 1044Q1037 1114 957 1187T772 1260Q603 1260 508 1129T412 729T507 330T772 199Q891 199 1026 258V586H774V811H1321V123Q1232 65 1085 15T772 -35Q620 -35 495 14T279 158T138 398T88
729T138 1059T279 1299T495 1443T772 1493Q898 1493 993 1466T1153 1386T1257 1269T1329 1118Z" />
<glyph unicode="H" glyph-name="H" horiz-adv-x="1478" d="M150 0V1458H457V885H1022V1458H1329V0H1022V651H457V0H150Z" />
<glyph unicode="I" glyph-name="I" horiz-adv-x="606" d="M150 0V1458H457V0H150Z" />
<glyph unicode="J" glyph-name="J" horiz-adv-x="833" d="M-29 53L94 272Q153 207 231 207Q317 207 352 263T387 434V1458H694V401Q694 310 668 233T589 95T453 0T262 -35Q83 -35 -29 53Z" />
<glyph unicode="K" glyph-name="K" horiz-adv-x="1366" d="M150 0V1458H457V838H461L961 1458H1327L748 768L1364 0H975L461 668H457V0H150Z" />
<glyph unicode="L" glyph-name="L" horiz-adv-x="1062" d="M150 0V1458H457V242H1036V0H150Z" />
<glyph unicode="M" glyph-name="M" horiz-adv-x="1933" d="M846 0L520 952Q497 1019 475 1107T446 1233H428Q432 1123 432 1075V0H150V1458H627L897 647Q934 536 961 393H973Q993 512 1036 647L1307 1458H1784V0H1501V1075Q1501 1123 1505 1233H1487Q1482 1198
1459 1109T1413 952L1087 0H846Z" />
<glyph unicode="N" glyph-name="N" horiz-adv-x="1554" d="M150 0V1458H545L934 752Q1093 458 1122 319H1137Q1122 442 1122 721V1458H1405V0H999L555 834Q471 988 430 1139H418Q432 903 432 801V0H150Z" />
<glyph unicode="O" glyph-name="O" horiz-adv-x="1515" d="M758 199Q927 199 1022 329T1118 729T1023 1129T758 1260Q588 1260 493 1129T397 729T492 330T758 199ZM758 -35Q447 -35 261 163T74 729T260 1294T758 1493Q910 1493 1035 1444T1251 1300T1392 1060T1442
729T1392 399T1251 159T1035 15T758 -35Z" />
<glyph unicode="P" glyph-name="P" horiz-adv-x="1251" d="M123 0V1458H702Q830 1458 927 1423T1081 1326T1167 1186T1196 1012Q1196 913 1168 834T1093 702T982 614T849 563T705 547H430V0H123ZM430 772H635Q901 772 901 1024Q901 1117 853 1175T700 1233H430V772Z" />
<glyph unicode="Q" glyph-name="Q" horiz-adv-x="1515" d="M758 199Q927 199 1022 329T1118 729T1023 1129T758 1260Q588 1260 493 1129T397 729T492 330T758 199ZM1241 -383L745 -35Q604 -35 484 12T271 152T127 392T74 729Q74 1096 260 1294T758 1493Q910 1493
1035 1444T1251 1300T1392 1060T1442 729Q1442 467 1344 289T1071 31L1413 -188L1241 -383Z" />
<glyph unicode="R" glyph-name="R" horiz-adv-x="1327" d="M457 829H692Q798 829 854 877T911 1034Q911 1140 864 1186T725 1233H457V829ZM954 0L686 604H457V0H150V1458H762Q991 1458 1105 1345T1219 1034Q1219 889 1154 804T969 668L1298 0H954Z" />
<glyph unicode="S" glyph-name="S" horiz-adv-x="1251" d="M1133 1194L854 1102Q846 1128 840 1143T816 1186T779 1228T722 1255T641 1268Q526 1268 469 1216T412 1094Q412 1038 438 1006T537 944L856 811Q1015 745 1089 654T1163 422Q1163 329 1127 247T1021
102T844 2T600 -35Q503 -35 419 -14T278 42T176 122T108 214T74 307L350 412Q356 372 371 338T416 270T496 218T614 199Q725 199 790 251T856 391Q856 450 816 494T680 575L485 651Q421 675 372 698T270 758T183 836T126 934T104 1059Q104 1123 121 1182T178 1299T277
1398T429 1467T635 1493Q731 1493 804 1480T943 1434T1056 1342T1133 1194Z" />
<glyph unicode="T" glyph-name="T" horiz-adv-x="1138" d="M416 0V1217H16V1458H1122V1217H723V0H416Z" />
<glyph unicode="U" glyph-name="U" horiz-adv-x="1441" d="M1012 1458H1307V573Q1307 272 1155 119T700 -35Q426 -35 281 120T135 573V1458H430V573Q430 394 497 297T721 199T944 296T1012 573V1458Z" />
<glyph unicode="V" glyph-name="V" horiz-adv-x="1366" d="M10 1458H334L627 471Q644 411 672 274H684Q698 347 739 481L1049 1458H1356L868 0H471L10 1458Z" />
<glyph unicode="W" glyph-name="W" horiz-adv-x="1972" d="M365 0L18 1458H330L498 651Q514 574 533 446T557 256H575Q590 443 637 659L807 1458H1184L1368 582Q1394 462 1417 256H1436Q1442 392 1485 600L1665 1458H1954L1614 0H1229L1044 852Q1029 921 1015
1038T999 1202H981Q978 1157 960 1044T928 870L748 0H365Z" />
<glyph unicode="X" glyph-name="X" horiz-adv-x="1402" d="M412 1458L602 1128Q663 1031 705 922H713Q730 983 805 1104L1006 1458H1346L909 762L1384 0H1022L791 399Q720 527 698 592H684Q653 508 582 385L360 0H18L494 762L57 1458H412Z" />
<glyph unicode="Y" glyph-name="Y" horiz-adv-x="1366" d="M526 0V563L2 1458H360L616 989Q646 935 688 819H694Q725 915 770 997L1020 1458H1364L834 563V0H526Z" />
<glyph unicode="Z" glyph-name="Z" horiz-adv-x="1175" d="M57 0V242L750 1225H78V1458H1104V1212L416 233H1116V0H57Z" />
<glyph unicode="[" glyph-name="bracketleft" horiz-adv-x="606" d="M143 -266V1552H553V1409H385V-123H553V-266H143Z" />
<glyph unicode="\" glyph-name="backslash" horiz-adv-x="796" d="M190 1528L793 0L606 -68L4 1460L190 1528Z" />
<glyph unicode="]" glyph-name="bracketright" horiz-adv-x="606" d="M463 1552V-266H53V-123H221V1409H53V1552H463Z" />
<glyph unicode="^" glyph-name="asciicircum" horiz-adv-x="1228" d="M129 651L524 1458H705L1100 651H903L612 1262L326 651H129Z" />
<glyph unicode="_" glyph-name="underscore" horiz-adv-x="1024" d="M1024 -256H0V-154H1024V-256Z" />
<glyph unicode="`" glyph-name="grave" horiz-adv-x="569" d="M281 1655L483 1356H270L-55 1655H281Z" />
<glyph unicode="a" glyph-name="a" horiz-adv-x="1175" d="M782 0L772 184Q603 -25 395 -25Q237 -25 147 76T57 346Q57 438 86 510T167 630T293 709T454 754T643 768H772V862Q772 946 725 999T575 1053Q534 1053 503 1044T452 1020T413 979T384 929T358 866L100
938Q130 1009 165 1060T256 1157T395 1225T586 1249Q690 1249 773 1225T920 1150T1020 1012T1055 807V209Q1055 127 1065 0H782ZM772 344V592H684Q503 592 422 537T340 371Q340 292 380 247T492 201Q535 201 563 206T625 230T687 271T772 344Z" />
<glyph unicode="b" glyph-name="b" horiz-adv-x="1290" d="M143 0V1591H438V1081Q482 1120 502 1137T559 1181T624 1219T692 1239T776 1249Q848 1249 909 1228T1013 1171T1090 1085T1145 979T1179 860T1198 738T1204 618Q1204 302 1097 139T778 -25Q684 -25 602
15T438 145V0H143ZM438 887V338Q540 201 674 201Q791 201 847 312T903 616Q903 1024 662 1024Q542 1024 438 887Z" />
<glyph unicode="c" glyph-name="c" horiz-adv-x="1099" d="M821 401L1087 334Q1073 294 1062 267T1029 198T984 129T923 70T842 19T739 -12T608 -25Q512 -25 433 0T297 70T200 174T134 305T98 452T86 608Q86 744 116 857T209 1060T375 1199T618 1249Q707 1249
783 1223T910 1157T997 1067T1052 971T1075 887L801 813Q799 909 751 974T612 1040Q498 1040 446 939T393 631Q393 526 402 451T435 313T504 217T616 184Q666 184 705 205T768 261T804 331T821 401Z" />
<glyph unicode="d" glyph-name="d" horiz-adv-x="1290" d="M1147 1591V0H852V145Q770 55 688 15T512 -25Q301 -25 194 138T86 618Q86 679 91 737T110 860T145 979T199 1084T276 1171T381 1228T514 1249Q558 1249 598 1240T666 1219T731 1181T788 1137T852 1081V1591H1147ZM852
338V887Q750 1024 629 1024Q387 1024 387 616Q387 423 443 312T616 201Q750 201 852 338Z" />
<glyph unicode="e" glyph-name="e" horiz-adv-x="1212" d="M852 367L1102 285Q976 -25 627 -25Q368 -25 217 146T66 616Q66 903 214 1076T629 1249Q755 1249 855 1201T1018 1070T1114 880T1147 649V539H360Q360 478 372 421T411 308T492 218T621 184Q683 184 734
215T813 285T852 367ZM360 735H852Q852 882 790 962T618 1040Q553 1041 504 1017T425 948T380 851T360 735Z" />
<glyph unicode="f" glyph-name="f" horiz-adv-x="757" d="M203 0V915H27V1124H203V1235Q203 1638 618 1638Q707 1638 795 1616V1407Q736 1430 651 1430Q498 1430 498 1225V1124H739V915H498V0H203Z" />
<glyph unicode="g" glyph-name="g" horiz-adv-x="1214" d="M1200 1225V1061H961Q980 1041 990 1029T1019 987T1046 920T1055 834Q1055 784 1041 736T991 638T902 552T762 492T569 469Q528 469 492 477Q461 448 461 408Q461 387 475 377T530 354L899 254Q1167 182
1167 -47Q1167 -147 1119 -221T988 -335T809 -395T602 -414Q347 -414 201 -328T55 -98Q55 -44 72 2T110 78T169 135T229 176T287 207Q250 227 233 263T215 336Q215 386 249 437T334 512Q195 578 142 656T88 860Q88 1025 214 1137T537 1249Q600 1249 758 1225H1200ZM476
666T573 666T729 719T788 860Q788 926 755 971T676 1034T578 1053Q467 1053 411 1001T354 860Q354 772 415 719ZM745 51L442 129Q381 87 347 43T313 -63Q313 -145 398 -185T612 -225Q885 -225 885 -74Q885 -22 849 6T745 51Z" />
<glyph unicode="h" glyph-name="h" horiz-adv-x="1290" d="M143 0V1591H438V1042Q483 1085 521 1115T612 1179T725 1231T848 1249Q917 1249 970 1229T1057 1175T1110 1093T1139 996T1147 889V0H852V825Q852 910 812 954T698 999Q633 999 582 966T438 846V0H143Z" />
<glyph unicode="i" glyph-name="i" horiz-adv-x="569" d="M137 0V1225H432V0H137ZM137 1372V1591H432V1372H137Z" />
<glyph unicode="j" glyph-name="j" horiz-adv-x="569" d="M137 -20V1225H432V-78Q432 -240 338 -327T84 -414Q-8 -414 -74 -395L-59 -174Q-17 -188 16 -188Q77 -188 107 -148T137 -20ZM137 1372V1591H432V1372H137Z" />
<glyph unicode="k" glyph-name="k" horiz-adv-x="1214" d="M145 1591H440V682H444L834 1229H1176L737 651L1210 0H856L444 614H440V0H145V1591Z" />
<glyph unicode="l" glyph-name="l" horiz-adv-x="569" d="M137 0V1591H432V0H137Z" />
<glyph unicode="m" glyph-name="m" horiz-adv-x="1933" d="M143 0V1225H438V1044Q484 1089 505 1109T568 1163T641 1210T717 1237T809 1249Q1019 1249 1094 1044Q1279 1249 1483 1249Q1641 1249 1715 1152T1790 887V0H1495V817Q1495 903 1458 951T1352 999Q1294
999 1248 971T1114 848V0H819V817Q819 903 782 951T676 999Q618 999 572 971T438 848V0H143Z" />
<glyph unicode="n" glyph-name="n" horiz-adv-x="1290" d="M852 0V825Q852 910 812 954T698 999Q633 999 582 966T438 846V0H143V1225H438V1042Q483 1085 521 1115T612 1179T725 1231T848 1249Q917 1249 970 1229T1057 1175T1110 1093T1139 996T1147 889V0H852Z" />
<glyph unicode="o" glyph-name="o" horiz-adv-x="1253" d="M373 612Q373 184 627 184T881 612Q881 831 815 935T627 1040T440 936T373 612ZM66 616Q66 899 219 1074T627 1249Q803 1249 930 1169T1123 946T1188 616Q1188 321 1032 148T627 -25Q368 -25 217 146T66 616Z" />
<glyph unicode="p" glyph-name="p" horiz-adv-x="1290" d="M143 -399V1225H438V1081Q482 1120 502 1137T559 1181T624 1219T692 1239T776 1249Q848 1249 909 1228T1013 1171T1090 1085T1145 979T1179 860T1198 738T1204 618Q1204 302 1097 139T778 -25Q684 -25
602 15T438 145V-399H143ZM438 887V338Q540 201 674 201Q791 201 847 312T903 616Q903 1024 662 1024Q542 1024 438 887Z" />
<glyph unicode="q" glyph-name="q" horiz-adv-x="1290" d="M1147 1225V-399H852V145Q770 55 688 15T512 -25Q301 -25 194 138T86 618Q86 679 91 737T110 860T145 979T199 1084T276 1171T381 1228T514 1249Q558 1249 598 1240T666 1219T731 1181T788 1137T852 1081V1225H1147ZM852
338V887Q750 1024 629 1024Q387 1024 387 616Q387 423 443 312T616 201Q750 201 852 338Z" />
<glyph unicode="r" glyph-name="r" horiz-adv-x="833" d="M143 0V1225H438V1032H442Q511 1123 599 1186T788 1249Q806 1249 844 1245V975Q766 983 739 983Q697 983 658 972T591 947T531 906T482 862T438 815V0H143Z" />
<glyph unicode="s" glyph-name="s" horiz-adv-x="1062" d="M987 965L741 889Q734 913 729 929T707 971T670 1013T612 1041T528 1053Q462 1053 416 1018T369 915Q369 889 378 868T397 835T430 811T463 795T498 782L733 705Q1010 615 1010 371Q1010 -25 487 -25Q397
-25 324 -3T205 53T127 131T78 213T53 287L305 365Q331 274 382 229T530 184Q622 184 668 232T715 338Q716 399 680 428T580 477L391 537Q86 630 86 877Q86 973 122 1046T222 1163T362 1227T528 1249Q629 1249 710 1226T846 1162T934 1072T987 965Z" />
<glyph unicode="t" glyph-name="t" horiz-adv-x="833" d="M784 1124V915H498V412Q498 366 499 340T509 284T532 238T576 212T645 201Q731 201 788 225V12Q757 -1 692 -13T559 -25Q459 -25 388 6T277 94T221 218T203 367V915H27V1124H203V1403L498 1526V1124H784Z" />
<glyph unicode="u" glyph-name="u" horiz-adv-x="1251" d="M1120 1225V0H825V186Q731 92 633 34T416 -25Q350 -25 300 -5T218 50T166 131T139 229T131 336V1225H426V399Q426 316 464 271T565 225Q599 225 628 234T692 268T750 314T825 383V1225H1120Z" />
<glyph unicode="v" glyph-name="v" horiz-adv-x="1138" d="M397 0L4 1225H322L512 584Q526 538 536 489T555 380T569 297H582Q596 440 639 582L840 1225H1135L743 0H397Z" />
<glyph unicode="w" glyph-name="w" horiz-adv-x="1857" d="M1155 0L989 672Q965 772 938 930H926Q924 869 885 688L729 0H358L10 1225H319L471 631Q484 582 496 524T521 394T543 287H555Q568 411 621 631L756 1225H1124L1268 616Q1318 396 1335 287H1350Q1358
392 1415 631L1552 1225H1847L1526 0H1155Z" />
<glyph unicode="x" glyph-name="x" horiz-adv-x="1175" d="M2 0L387 653L45 1225H379L539 928Q588 833 600 803H608Q645 886 659 911L834 1225H1141L797 657L1174 0H831L631 377Q603 428 588 473H578Q570 460 528 377L317 0H2Z" />
<glyph unicode="y" glyph-name="y" horiz-adv-x="1138" d="M102 -385L117 -158Q198 -180 238 -180Q265 -180 283 -175T328 -153T381 -92T434 20L4 1225H322L510 643Q521 610 530 572T545 508T559 427T575 342H588Q601 479 651 635L840 1225H1135L690 -84Q632 -257
548 -335T313 -414Q210 -414 102 -385Z" />
<glyph unicode="z" glyph-name="z" horiz-adv-x="1062" d="M47 0V197L643 1016H72V1225H995V1026L397 209H1016V0H47Z" />
<glyph unicode="{" glyph-name="braceleft" horiz-adv-x="720" d="M63 569V719Q129 719 182 768T236 911V1292Q236 1374 277 1435T375 1524T489 1552H668V1409H563Q457 1409 457 1260V883Q456 828 441 785T404 718T353 676T303 653T260 645V641Q281 639 302 633T353
610T403 569T440 501T457 403V27Q457 -123 563 -123H668V-266H489Q432 -266 376 -239T278 -150T236 -6V375Q236 468 183 518T63 569Z" />
<glyph unicode="|" glyph-name="bar" horiz-adv-x="454" d="M129 -512V1536H326V-512H129Z" />
<glyph unicode="}" glyph-name="braceright" horiz-adv-x="720" d="M657 717V567Q592 567 539 518T485 375V-6Q485 -68 461 -119T399 -202T317 -249T231 -266H53V-123H158Q264 -123 264 27V403Q265 458 280 501T317 568T367 610T418 633T461 641V645Q440 647 418
653T368 676T318 717T281 785T264 883V1260Q264 1409 158 1409H53V1552H231Q273 1552 316 1536T398 1488T461 1406T485 1292V911Q485 818 538 768T657 717Z" />
<glyph unicode="~" glyph-name="asciitilde" horiz-adv-x="1228" d="M1014 688L1087 532Q1064 500 1049 480T1008 434T958 393T901 367T831 356Q746 356 623 424Q495 496 387 496Q326 496 286 455T215 348L141 504Q233 680 397 680Q478 680 625 614Q637 609 679
591T739 565T785 549T834 541Q863 541 888 552T937 588T976 633T1014 688Z" />
</font>
</defs>
</svg>
